# xmcd
#
# Track frame offsets:
#	182
#	14575
#	29680
#	42615
#	56175
#	70750
#	85947
#	97897
#	112370
#	127537
#	140867
#	154017
#	168485
#	183585
#	196867
#	209530
#	223770
#	238800
#	253102
#	267322
#	280837
#	291242
#
# Disc length: 4081 seconds
#
# Revision: 0
# Processed by: cddbd v1.4PL0 Copyright (c) Steve Scherf et al.
# Submitted via: dBpowerAMP V4.0
#
DISCID=600fef16
DTITLE=divers - la chanson sous l'occupation
DYEAR=1999
DGENRE=Chanson
TTITLE0=on ira pendre notre linge sur la ligne Sigfried   Ray Ventura
TTITLE1=Lily Marlène  Suzy Solidor
TTITLE2=Maréchal nous voilà  André Dassary
TTITLE3=Ah ! que la France est bell   Bordas
TTITLE4=Bel ami  Tino Rossi
TTITLE5=je suis seule ce soir  Léo Marjane
TTITLE6=Rythme  Jonnhy Hess
TTITLE7=mon p'tit kaki  Annette Lajon
TTITLE8=attends-moi mon amour  André Claveau
TTITLE9=j'attendrai  Rina Ketty
TTITLE10=dans le chemin du retour  Yvon Jean-Claude
TTITLE11=quand tu reviendras  Elyane Celis
TTITLE12=la symphonie des semelles de bois  Maurice Chevalier
TTITLE13=le vent m'a dit une chanson  Zarah Leander
TTITLE14=marché rose  Jacques Pills
TTITLE15=le clocher de mon coeur  Eva Busch
TTITLE16=swing troubadour  Charles Trenet
TTITLE17=mademoiselle Swing  Irene de Trebert
TTITLE18=swing, swing Madame  Reda Caire
TTITLE19=j'ai chanté sur ma peine  Lucienne Delyle
TTITLE20=la java  Andrex
TTITLE21=le premier rendez-vous  Danielle Darieux
EXTD=
EXTT0=
EXTT1=
EXTT2=
EXTT3=
EXTT4=
EXTT5=
EXTT6=
EXTT7=
EXTT8=
EXTT9=
EXTT10=
EXTT11=
EXTT12=
EXTT13=
EXTT14=
EXTT15=
EXTT16=
EXTT17=
EXTT18=
EXTT19=
EXTT20=
EXTT21=
PLAYORDER=
